solid PCB Cover
facet normal 1.0 1.7064639101740927e-24 1.490176188001515e-08
  outer loop
    vertex 52.200000053646555 9.00000002949513 5.000002168347704
    vertex 52.20000009835183 9.999999903088224 2.0000021262120815
    vertex 52.200000053646555 10.000000029495116 5.000002126212096
  endloop
endfacet
facet normal 1.0 1.7064639101740927e-24 1.490176188001515e-08
  outer loop
    vertex 52.2000000536466 74.00000002949507 4.999999429531727
    vertex 52.2000001281554 74.99999981881692 -6.126038898204956e-07
    vertex 52.20000005364658 75.00000002949507 4.9999993873961195
  endloop
endfacet
facet normal 1.0 1.7064639101740927e-24 1.490176188001515e-08
  outer loop
    vertex 52.2000001281554 74.99999981881692 -6.126038898204956e-07
    vertex 52.2000000536466 74.00000002949507 4.999999429531727
    vertex 52.20000009835188 73.99999990308818 1.999999429531735
  endloop
endfacet
facet normal 1.0 1.7064639101740927e-24 1.490176188001515e-08
  outer loop
    vertex 52.2000001281554 74.99999981881692 -6.126038898204956e-07
    vertex 52.20000009835188 73.99999990308818 1.999999429531735
    vertex 52.20000012815536 8.99999981881698 2.168347717459262e-06
  endloop
endfacet
facet normal 1.0 1.7064639101740927e-24 1.490176188001515e-08
  outer loop
    vertex 52.20000012815536 8.99999981881698 2.168347717459262e-06
    vertex 52.20000009835188 73.99999990308818 1.999999429531735
    vertex 52.20000009835183 9.999999903088224 2.0000021262120815
  endloop
endfacet
facet normal 1.0 1.7064639101740927e-24 1.490176188001515e-08
  outer loop
    vertex 52.20000012815536 8.99999981881698 2.168347717459262e-06
    vertex 52.20000009835183 9.999999903088224 2.0000021262120815
    vertex 52.200000053646555 9.00000002949513 5.000002168347704
  endloop
endfacet
facet normal -6.278951293777029e-16 -0.9999999999999991 4.213563041332966e-08
  outer loop
    vertex 52.20000012815536 8.99999981881698 2.168347717459262e-06
    vertex 27.20000005364654 9.00000002949514 5.000001795803657
    vertex 27.200000128155345 8.99999981881698 1.7958036478991513e-06
  endloop
endfacet
facet normal -6.278951293777029e-16 -0.9999999999999991 4.213563041332966e-08
  outer loop
    vertex 27.20000005364654 9.00000002949514 5.000001795803657
    vertex 52.20000012815536 8.99999981881698 2.168347717459262e-06
    vertex 52.200000053646555 9.00000002949513 5.000002168347704
  endloop
endfacet
facet normal 1.0 1.7064639101740927e-24 1.490176188001515e-08
  outer loop
    vertex 3.2000000834500724 9.999999945223859 3.000001396025769
    vertex 3.2000000983518806 73.99999990308818 1.9999986993454029
    vertex 3.200000083450112 73.9999999452238 2.9999986993454
  endloop
endfacet
facet normal 1.0 1.7064639101740927e-24 1.490176188001515e-08
  outer loop
    vertex 3.2000000983518806 73.99999990308818 1.9999986993454029
    vertex 3.2000000834500724 9.999999945223859 3.000001396025769
    vertex 3.20000009835183 9.999999903088224 2.0000013960257492
  endloop
endfacet
facet normal 1.0 1.7064639101740927e-24 1.490176188001515e-08
  outer loop
    vertex 27.2000000000002 5.000000181183412 8.600001964346168
    vertex 27.200000025333193 9.000000109552827 6.900001795803652
    vertex 27.2000000000002 9.000000181183406 8.600001795803648
  endloop
endfacet
facet normal 1.0 1.7064639101740927e-24 1.490176188001515e-08
  outer loop
    vertex 27.200000025333193 9.000000109552827 6.900001795803652
    vertex 27.2000000000002 5.000000181183412 8.600001964346168
    vertex 27.200000025333193 6.80000010955282 6.9000018885020395
  endloop
endfacet
facet normal 1.0 1.7064639101740927e-24 1.490176188001515e-08
  outer loop
    vertex 27.20000005364654 6.800000029495133 5.000001888502044
    vertex 27.200000128155345 8.99999981881698 1.7958036478991513e-06
    vertex 27.20000005364654 9.00000002949514 5.000001795803657
  endloop
endfacet
facet normal 1.0 1.7064639101740927e-24 1.490176188001515e-08
  outer loop
    vertex 27.200000128155345 8.99999981881698 1.7958036478991513e-06
    vertex 27.20000005364654 6.800000029495133 5.000001888502044
    vertex 27.200000128155345 4.9999998188169865 1.96434616955247e-06
  endloop
endfacet
facet normal 1.0 1.7064639101740927e-24 1.490176188001515e-08
  outer loop
    vertex 27.200000128155345 4.9999998188169865 1.96434616955247e-06
    vertex 27.20000005364654 6.800000029495133 5.000001888502044
    vertex 27.200000025333193 6.80000010955282 6.9000018885020395
  endloop
endfacet
facet normal 1.0 1.7064639101740927e-24 1.490176188001515e-08
  outer loop
    vertex 27.200000128155345 4.9999998188169865 1.96434616955247e-06
    vertex 27.200000025333193 6.80000010955282 6.9000018885020395
    vertex 27.2000000000002 5.000000181183412 8.600001964346168
  endloop
endfacet
facet normal -6.278951293777029e-16 -0.9999999999999991 4.213563041332966e-08
  outer loop
    vertex 27.2000000000002 5.000000181183412 8.600001964346168
    vertex 12.200000128155363 4.999999818816975 1.7408197639119749e-06
    vertex 27.200000128155345 4.9999998188169865 1.96434616955247e-06
  endloop
endfacet
facet normal -6.278951293777029e-16 -0.9999999999999991 4.213563041332966e-08
  outer loop
    vertex 12.200000128155363 4.999999818816975 1.7408197639119749e-06
    vertex 27.2000000000002 5.000000181183412 8.600001964346168
    vertex 12.200000000000209 5.000000181183412 8.60000174081974
  endloop
endfacet
facet normal 1.0 1.7064639101740927e-24 1.490176188001515e-08
  outer loop
    vertex 27.200000000000244 75.00000018118334 8.599999014852061
    vertex 27.200000025333242 77.20000010955276 6.8999989221536575
    vertex 27.200000000000255 79.00000018118334 8.599998846309518
  endloop
endfacet
facet normal 1.0 1.7064639101740927e-24 1.490176188001515e-08
  outer loop
    vertex 27.200000025333242 77.20000010955276 6.8999989221536575
    vertex 27.200000000000244 75.00000018118334 8.599999014852061
    vertex 27.200000025333242 75.00000010955276 6.899999014852044
  endloop
endfacet
facet normal 1.0 1.7064639101740927e-24 1.490176188001515e-08
  outer loop
    vertex 27.200000000000255 79.00000018118334 8.599998846309518
    vertex 27.200000128155402 74.99999981881692 -9.851479368208744e-07
    vertex 27.200000128155402 78.99999981881692 -1.1536904584741934e-06
  endloop
endfacet
facet normal 1.0 1.7064639101740927e-24 1.490176188001515e-08
  outer loop
    vertex 27.200000128155402 74.99999981881692 -9.851479368208744e-07
    vertex 27.200000000000255 79.00000018118334 8.599998846309518
    vertex 27.200000053646587 77.20000002949506 4.9999989221536625
  endloop
endfacet
facet normal 1.0 1.7064639101740927e-24 1.490176188001515e-08
  outer loop
    vertex 27.200000053646587 77.20000002949506 4.9999989221536625
    vertex 27.200000000000255 79.00000018118334 8.599998846309518
    vertex 27.200000025333242 77.20000010955276 6.8999989221536575
  endloop
endfacet
facet normal 1.0 1.7064639101740927e-24 1.490176188001515e-08
  outer loop
    vertex 27.200000128155402 74.99999981881692 -9.851479368208744e-07
    vertex 27.200000053646587 77.20000002949506 4.9999989221536625
    vertex 27.200000053646587 75.00000002949507 4.99999901485205
  endloop
endfacet
facet normal 6.278951293777029e-16 0.9999999999999991 -4.213563041332966e-08
  outer loop
    vertex 27.200000053646587 75.00000002949507 4.99999901485205
    vertex 52.2000001281554 74.99999981881692 -6.126038898204956e-07
    vertex 27.200000128155402 74.99999981881692 -9.851479368208744e-07
  endloop
endfacet
facet normal 6.278951293777029e-16 0.9999999999999991 -4.213563041332966e-08
  outer loop
    vertex 52.2000001281554 74.99999981881692 -6.126038898204956e-07
    vertex 27.200000053646587 75.00000002949507 4.99999901485205
    vertex 52.20000005364658 75.00000002949507 4.9999993873961195
  endloop
endfacet
facet normal -6.348890924853758e-16 -0.9999999999999991 4.213563032056761e-08
  outer loop
    vertex 27.200000025333242 77.20000010955276 6.8999989221536575
    vertex 2.0000000536466045 77.20000002949506 4.999998546629263
    vertex 27.200000053646587 77.20000002949506 4.9999989221536625
  endloop
endfacet
facet normal -6.348890924853758e-16 -0.9999999999999991 4.213563032056761e-08
  outer loop
    vertex 2.0000000536466045 77.20000002949506 4.999998546629263
    vertex 27.200000025333242 77.20000010955276 6.8999989221536575
    vertex 2.0000000253332555 77.20000010955276 6.8999985466292575
  endloop
endfacet
facet normal 1.4901761880015136e-08 -4.213563041332967e-08 -0.9999999999999991
  outer loop
    vertex 2.0000000253332555 75.00000010955276 6.899998639327646
    vertex 27.200000025333242 77.20000010955276 6.8999989221536575
    vertex 27.200000025333242 75.00000010955276 6.899999014852044
  endloop
endfacet
facet normal 1.4901761880015136e-08 -4.213563041332967e-08 -0.9999999999999991
  outer loop
    vertex 27.200000025333242 77.20000010955276 6.8999989221536575
    vertex 2.0000000253332555 75.00000010955276 6.899998639327646
    vertex 2.0000000253332555 77.20000010955276 6.8999985466292575
  endloop
endfacet
facet normal -6.278951293777029e-16 -0.9999999999999991 4.213563041332966e-08
  outer loop
    vertex 27.200000000000244 75.00000018118334 8.599999014852061
    vertex 2.0000000253332555 75.00000010955276 6.899998639327646
    vertex 27.200000025333242 75.00000010955276 6.899999014852044
  endloop
endfacet
facet normal -6.278951293777029e-16 -0.9999999999999991 4.213563041332966e-08
  outer loop
    vertex 2.0000000253332555 75.00000010955276 6.899998639327646
    vertex 5.3646613729085856e-08 75.00000002949507 4.999998609524126
    vertex 2.0000000536466045 75.00000002949507 4.99999863932765
  endloop
endfacet
facet normal -6.278951293777029e-16 -0.9999999999999991 4.213563041332966e-08
  outer loop
    vertex 5.3646613729085856e-08 75.00000002949507 4.999998609524126
    vertex 2.0000000253332555 75.00000010955276 6.899998639327646
    vertex 2.7071678232459813e-13 75.00000018118334 8.59999860952414
  endloop
endfacet
facet normal -6.278951293777029e-16 -0.9999999999999991 4.213563041332966e-08
  outer loop
    vertex 2.7071678232459813e-13 75.00000018118334 8.59999860952414
    vertex 2.0000000253332555 75.00000010955276 6.899998639327646
    vertex 27.200000000000244 75.00000018118334 8.599999014852061
  endloop
endfacet
facet normal -1.4901761859434476e-08 4.21356302644317e-08 0.9999999999999991
  outer loop
    vertex 12.200000000000253 79.00000018118334 8.59999862278309
    vertex 27.200000000000244 75.00000018118334 8.599999014852061
    vertex 27.200000000000255 79.00000018118334 8.599998846309518
  endloop
endfacet
facet normal -1.4901761859434476e-08 4.21356302644317e-08 0.9999999999999991
  outer loop
    vertex 27.200000000000244 75.00000018118334 8.599999014852061
    vertex 12.200000000000253 79.00000018118334 8.59999862278309
    vertex 2.7071678232459813e-13 75.00000018118334 8.59999860952414
  endloop
endfacet
facet normal -1.4901761859434476e-08 4.21356302644317e-08 0.9999999999999991
  outer loop
    vertex 2.7071678232459813e-13 75.00000018118334 8.59999860952414
    vertex 12.200000000000253 79.00000018118334 8.59999862278309
    vertex 7.200000000000258 84.00000018118332 8.599998337596128
  endloop
endfacet
facet normal -1.4901761859434476e-08 4.21356302644317e-08 0.9999999999999991
  outer loop
    vertex 2.7071678232459813e-13 75.00000018118334 8.59999860952414
    vertex 7.200000000000258 84.00000018118332 8.599998337596128
    vertex 2.5943691639440655e-13 84.00000018118332 8.599998230303465
  endloop
endfacet
facet normal 1.075508856766207e-15 0.9999999999999991 -4.2135630413329654e-08
  outer loop
    vertex 2.000000025333199 6.8000001095528315 6.900001512977617
    vertex 27.20000005364654 6.800000029495133 5.000001888502044
    vertex 2.000000053646548 6.800000029495145 5.0000015129776445
  endloop
endfacet
facet normal 1.075508856766207e-15 0.9999999999999991 -4.2135630413329654e-08
  outer loop
    vertex 27.20000005364654 6.800000029495133 5.000001888502044
    vertex 2.000000025333199 6.8000001095528315 6.900001512977617
    vertex 27.200000025333193 6.80000010955282 6.9000018885020395
  endloop
endfacet
facet normal 1.0526719399309298e-15 0.9999999999999991 -4.213563033636959e-08
  outer loop
    vertex 1.9175772081325702e-13 9.000000181183406 8.600001390475724
    vertex 2.000000053646559 9.00000002949514 5.000001420279258
    vertex 5.3646557329756205e-08 9.00000002949513 5.0000013904757115
  endloop
endfacet
facet normal 1.0526719399309298e-15 0.9999999999999991 -4.213563033636959e-08
  outer loop
    vertex 2.000000053646559 9.00000002949514 5.000001420279258
    vertex 1.9175772081325702e-13 9.000000181183406 8.600001390475724
    vertex 2.000000025333199 9.000000109552827 6.900001420279231
  endloop
endfacet
facet normal 1.0526719399309298e-15 0.9999999999999991 -4.213563033636959e-08
  outer loop
    vertex 2.000000025333199 9.000000109552827 6.900001420279231
    vertex 1.9175772081325702e-13 9.000000181183406 8.600001390475724
    vertex 27.200000025333193 9.000000109552827 6.900001795803652
  endloop
endfacet
facet normal 1.0526719399309298e-15 0.9999999999999991 -4.213563033636959e-08
  outer loop
    vertex 27.200000025333193 9.000000109552827 6.900001795803652
    vertex 1.9175772081325702e-13 9.000000181183406 8.600001390475724
    vertex 27.2000000000002 9.000000181183406 8.600001795803648
  endloop
endfacet
facet normal 1.4901761927461776e-08 -4.213563041332967e-08 -0.9999999999999991
  outer loop
    vertex 2.000000025333199 6.8000001095528315 6.900001512977617
    vertex 27.200000025333193 9.000000109552827 6.900001795803652
    vertex 27.200000025333193 6.80000010955282 6.9000018885020395
  endloop
endfacet
facet normal 1.4901761927461776e-08 -4.213563041332967e-08 -0.9999999999999991
  outer loop
    vertex 27.200000025333193 9.000000109552827 6.900001795803652
    vertex 2.000000025333199 6.8000001095528315 6.900001512977617
    vertex 2.000000025333199 9.000000109552827 6.900001420279231
  endloop
endfacet
facet normal -1.4901761886323887e-08 4.213563033159385e-08 0.9999999999999991
  outer loop
    vertex 5.3646557329756205e-08 10.000000029495116 5.000001348340104
    vertex 52.200000053646555 9.00000002949513 5.000002168347704
    vertex 52.200000053646555 10.000000029495116 5.000002126212096
  endloop
endfacet
facet normal -1.4901761886323887e-08 4.213563033159385e-08 0.9999999999999991
  outer loop
    vertex 52.200000053646555 9.00000002949513 5.000002168347704
    vertex 5.3646557329756205e-08 10.000000029495116 5.000001348340104
    vertex 27.20000005364654 9.00000002949514 5.000001795803657
  endloop
endfacet
facet normal -1.4901761886323887e-08 4.213563033159385e-08 0.9999999999999991
  outer loop
    vertex 27.20000005364654 9.00000002949514 5.000001795803657
    vertex 5.3646557329756205e-08 10.000000029495116 5.000001348340104
    vertex 27.20000005364654 6.800000029495133 5.000001888502044
  endloop
endfacet
facet normal -1.4901761886323887e-08 4.213563033159385e-08 0.9999999999999991
  outer loop
    vertex 27.20000005364654 6.800000029495133 5.000001888502044
    vertex 5.3646557329756205e-08 10.000000029495116 5.000001348340104
    vertex 2.000000053646559 9.00000002949514 5.000001420279258
  endloop
endfacet
facet normal -1.4901761886323887e-08 4.213563033159385e-08 0.9999999999999991
  outer loop
    vertex 2.000000053646559 9.00000002949514 5.000001420279258
    vertex 5.3646557329756205e-08 10.000000029495116 5.000001348340104
    vertex 5.3646557329756205e-08 9.00000002949513 5.0000013904757115
  endloop
endfacet
facet normal -1.4901761886323887e-08 4.213563033159385e-08 0.9999999999999991
  outer loop
    vertex 2.000000053646548 6.800000029495145 5.0000015129776445
    vertex 27.20000005364654 6.800000029495133 5.000001888502044
    vertex 2.000000053646559 9.00000002949514 5.000001420279258
  endloop
endfacet
facet normal 6.278951293777029e-16 0.9999999999999991 -4.213563041332966e-08
  outer loop
    vertex 5.3646557329756205e-08 10.000000029495116 5.000001348340104
    vertex 3.2000000834500724 9.999999945223859 3.000001396025769
    vertex 8.345008373211726e-08 9.999999945223847 3.0000013483401085
  endloop
endfacet
facet normal 6.278951293777029e-16 0.9999999999999991 -4.213563041332966e-08
  outer loop
    vertex 3.2000000834500724 9.999999945223859 3.000001396025769
    vertex 52.20000009835183 9.999999903088224 2.0000021262120815
    vertex 3.20000009835183 9.999999903088224 2.0000013960257492
  endloop
endfacet
facet normal 6.278951293777029e-16 0.9999999999999991 -4.213563041332966e-08
  outer loop
    vertex 52.20000009835183 9.999999903088224 2.0000021262120815
    vertex 3.2000000834500724 9.999999945223859 3.000001396025769
    vertex 52.200000053646555 10.000000029495116 5.000002126212096
  endloop
endfacet
facet normal 6.278951293777029e-16 0.9999999999999991 -4.213563041332966e-08
  outer loop
    vertex 52.200000053646555 10.000000029495116 5.000002126212096
    vertex 3.2000000834500724 9.999999945223859 3.000001396025769
    vertex 5.3646557329756205e-08 10.000000029495116 5.000001348340104
  endloop
endfacet
facet normal -1.4901761890584526e-08 4.213563046146247e-08 0.9999999999999991
  outer loop
    vertex 2.0000000536466045 77.20000002949506 4.999998546629263
    vertex 27.200000053646587 75.00000002949507 4.99999901485205
    vertex 27.200000053646587 77.20000002949506 4.9999989221536625
  endloop
endfacet
facet normal -1.4901761890584526e-08 4.213563046146247e-08 0.9999999999999991
  outer loop
    vertex 52.20000005364658 75.00000002949507 4.9999993873961195
    vertex 5.364660244921992e-08 74.00000002949507 4.999998651659757
    vertex 52.2000000536466 74.00000002949507 4.999999429531727
  endloop
endfacet
facet normal -1.4901761890584526e-08 4.213563046146247e-08 0.9999999999999991
  outer loop
    vertex 5.364660244921992e-08 74.00000002949507 4.999998651659757
    vertex 52.20000005364658 75.00000002949507 4.9999993873961195
    vertex 27.200000053646587 75.00000002949507 4.99999901485205
  endloop
endfacet
facet normal -1.4901761890584526e-08 4.213563046146247e-08 0.9999999999999991
  outer loop
    vertex 5.364660244921992e-08 74.00000002949507 4.999998651659757
    vertex 27.200000053646587 75.00000002949507 4.99999901485205
    vertex 2.0000000536466045 75.00000002949507 4.99999863932765
  endloop
endfacet
facet normal -1.4901761890584526e-08 4.213563046146247e-08 0.9999999999999991
  outer loop
    vertex 2.0000000536466045 75.00000002949507 4.99999863932765
    vertex 27.200000053646587 75.00000002949507 4.99999901485205
    vertex 2.0000000536466045 77.20000002949506 4.999998546629263
  endloop
endfacet
facet normal -1.4901761890584526e-08 4.213563046146247e-08 0.9999999999999991
  outer loop
    vertex 5.364660244921992e-08 74.00000002949507 4.999998651659757
    vertex 2.0000000536466045 75.00000002949507 4.99999863932765
    vertex 5.3646613729085856e-08 75.00000002949507 4.999998609524126
  endloop
endfacet
facet normal -1.4901762232510948e-08 4.213563041883741e-08 0.9999999999999991
  outer loop
    vertex 8.345012885158098e-08 73.99999994522379 2.999998651659762
    vertex 3.2000000834500724 9.999999945223859 3.000001396025769
    vertex 3.200000083450112 73.9999999452238 2.9999986993454
  endloop
endfacet
facet normal -1.4901762232510948e-08 4.213563041883741e-08 0.9999999999999991
  outer loop
    vertex 3.2000000834500724 9.999999945223859 3.000001396025769
    vertex 8.345012885158098e-08 73.99999994522379 2.999998651659762
    vertex 8.345008373211726e-08 9.999999945223847 3.0000013483401085
  endloop
endfacet
facet normal -5.708216632904408e-16 -0.9999999999999991 4.213563041722081e-08
  outer loop
    vertex 52.2000000536466 74.00000002949507 4.999999429531727
    vertex 3.2000000983518806 73.99999990308818 1.9999986993454029
    vertex 52.20000009835188 73.99999990308818 1.999999429531735
  endloop
endfacet
facet normal -5.708216632904408e-16 -0.9999999999999991 4.213563041722081e-08
  outer loop
    vertex 3.2000000983518806 73.99999990308818 1.9999986993454029
    vertex 52.2000000536466 74.00000002949507 4.999999429531727
    vertex 3.200000083450112 73.9999999452238 2.9999986993454
  endloop
endfacet
facet normal -5.708216632904408e-16 -0.9999999999999991 4.213563041722081e-08
  outer loop
    vertex 3.200000083450112 73.9999999452238 2.9999986993454
    vertex 52.2000000536466 74.00000002949507 4.999999429531727
    vertex 8.345012885158098e-08 73.99999994522379 2.999998651659762
  endloop
endfacet
facet normal -5.708216632904408e-16 -0.9999999999999991 4.213563041722081e-08
  outer loop
    vertex 8.345012885158098e-08 73.99999994522379 2.999998651659762
    vertex 52.2000000536466 74.00000002949507 4.999999429531727
    vertex 5.364660244921992e-08 74.00000002949507 4.999998651659757
  endloop
endfacet
facet normal -1.4901761880015136e-08 4.213563041332967e-08 0.9999999999999991
  outer loop
    vertex 3.2000000983518806 73.99999990308818 1.9999986993454029
    vertex 52.20000009835183 9.999999903088224 2.0000021262120815
    vertex 52.20000009835188 73.99999990308818 1.999999429531735
  endloop
endfacet
facet normal -1.4901761880015136e-08 4.213563041332967e-08 0.9999999999999991
  outer loop
    vertex 52.20000009835183 9.999999903088224 2.0000021262120815
    vertex 3.2000000983518806 73.99999990308818 1.9999986993454029
    vertex 3.20000009835183 9.999999903088224 2.0000013960257492
  endloop
endfacet
facet normal 5.691458267413097e-16 0.9999999999999991 -4.2135630351847834e-08
  outer loop
    vertex 12.200000000000253 79.00000018118334 8.59999862278309
    vertex 27.200000128155402 78.99999981881692 -1.1536904584741934e-06
    vertex 12.200000128155407 78.99999981881692 -1.3772168866744203e-06
  endloop
endfacet
facet normal 5.691458267413097e-16 0.9999999999999991 -4.2135630351847834e-08
  outer loop
    vertex 27.200000128155402 78.99999981881692 -1.1536904584741934e-06
    vertex 12.200000000000253 79.00000018118334 8.59999862278309
    vertex 27.200000000000255 79.00000018118334 8.599998846309518
  endloop
endfacet
facet normal 6.278951293777029e-16 0.9999999999999991 -4.213563041332966e-08
  outer loop
    vertex 2.5943691639440655e-13 84.00000018118332 8.599998230303465
    vertex 7.200000128155399 83.9999998188169 -1.6624038481411442e-06
    vertex 1.2815541845512256e-07 83.9999998188169 -1.7696965336772528e-06
  endloop
endfacet
facet normal 6.278951293777029e-16 0.9999999999999991 -4.213563041332966e-08
  outer loop
    vertex 7.200000128155399 83.9999998188169 -1.6624038481411442e-06
    vertex 2.5943691639440655e-13 84.00000018118332 8.599998230303465
    vertex 7.200000000000258 84.00000018118332 8.599998337596128
  endloop
endfacet
facet normal -6.278951293777029e-16 -0.9999999999999991 4.213563041332966e-08
  outer loop
    vertex 7.200000000000201 1.8118341049699893e-07 8.600001876989083
    vertex 1.2815533949606104e-07 -1.811830269815573e-07 1.7696963984827063e-06
    vertex 7.200000128155354 -1.8118301570169137e-07 1.8769890840188151e-06
  endloop
endfacet
facet normal -6.278951293777029e-16 -0.9999999999999991 4.213563041332966e-08
  outer loop
    vertex 1.2815533949606104e-07 -1.811830269815573e-07 1.7696963984827063e-06
    vertex 7.200000000000201 1.8118341049699893e-07 8.600001876989083
    vertex 1.9175772081325702e-13 1.8118339921713299e-07 8.60000176969642
  endloop
endfacet
facet normal 0.7071067811865472 -0.7071067811865468 4.033152687182144e-08
  outer loop
    vertex 7.200000000000201 1.8118341049699893e-07 8.600001876989083
    vertex 12.200000128155363 4.999999818816975 1.7408197639119749e-06
    vertex 12.200000000000209 5.000000181183412 8.60000174081974
  endloop
endfacet
facet normal 0.7071067811865472 -0.7071067811865468 4.033152687182144e-08
  outer loop
    vertex 12.200000128155363 4.999999818816975 1.7408197639119749e-06
    vertex 7.200000000000201 1.8118341049699893e-07 8.600001876989083
    vertex 7.200000128155354 -1.8118301570169137e-07 1.8769890840188151e-06
  endloop
endfacet
facet normal -1.4901761880015136e-08 4.213563041332967e-08 0.9999999999999991
  outer loop
    vertex 1.9175772081325702e-13 9.000000181183406 8.600001390475724
    vertex 27.2000000000002 5.000000181183412 8.600001964346168
    vertex 27.2000000000002 9.000000181183406 8.600001795803648
  endloop
endfacet
facet normal -1.4901761880015136e-08 4.213563041332967e-08 0.9999999999999991
  outer loop
    vertex 27.2000000000002 5.000000181183412 8.600001964346168
    vertex 1.9175772081325702e-13 9.000000181183406 8.600001390475724
    vertex 12.200000000000209 5.000000181183412 8.60000174081974
  endloop
endfacet
facet normal -1.4901761880015136e-08 4.213563041332967e-08 0.9999999999999991
  outer loop
    vertex 12.200000000000209 5.000000181183412 8.60000174081974
    vertex 1.9175772081325702e-13 9.000000181183406 8.600001390475724
    vertex 7.200000000000201 1.8118341049699893e-07 8.600001876989083
  endloop
endfacet
facet normal -1.4901761880015136e-08 4.213563041332967e-08 0.9999999999999991
  outer loop
    vertex 7.200000000000201 1.8118341049699893e-07 8.600001876989083
    vertex 1.9175772081325702e-13 9.000000181183406 8.600001390475724
    vertex 1.9175772081325702e-13 1.8118339921713299e-07 8.60000176969642
  endloop
endfacet
facet normal 1.490176189776303e-08 -4.213563039347982e-08 -0.9999999999999991
  outer loop
    vertex 12.200000128155363 4.999999818816975 1.7408197639119749e-06
    vertex 27.200000128155345 8.99999981881698 1.7958036478991513e-06
    vertex 27.200000128155345 4.9999998188169865 1.96434616955247e-06
  endloop
endfacet
facet normal 1.490176189776303e-08 -4.213563039347982e-08 -0.9999999999999991
  outer loop
    vertex 27.200000128155345 8.99999981881698 1.7958036478991513e-06
    vertex 52.2000001281554 74.99999981881692 -6.126038898204956e-07
    vertex 52.20000012815536 8.99999981881698 2.168347717459262e-06
  endloop
endfacet
facet normal 1.490176189776303e-08 -4.213563039347982e-08 -0.9999999999999991
  outer loop
    vertex 52.2000001281554 74.99999981881692 -6.126038898204956e-07
    vertex 27.200000128155345 8.99999981881698 1.7958036478991513e-06
    vertex 27.200000128155402 74.99999981881692 -9.851479368208744e-07
  endloop
endfacet
facet normal 1.490176189776303e-08 -4.213563039347982e-08 -0.9999999999999991
  outer loop
    vertex 27.200000128155402 74.99999981881692 -9.851479368208744e-07
    vertex 27.200000128155345 8.99999981881698 1.7958036478991513e-06
    vertex 27.200000128155402 78.99999981881692 -1.1536904584741934e-06
  endloop
endfacet
facet normal 1.490176189776303e-08 -4.213563039347982e-08 -0.9999999999999991
  outer loop
    vertex 27.200000128155402 78.99999981881692 -1.1536904584741934e-06
    vertex 27.200000128155345 8.99999981881698 1.7958036478991513e-06
    vertex 12.200000128155407 78.99999981881692 -1.3772168866744203e-06
  endloop
endfacet
facet normal 1.490176189776303e-08 -4.213563039347982e-08 -0.9999999999999991
  outer loop
    vertex 12.200000128155407 78.99999981881692 -1.3772168866744203e-06
    vertex 27.200000128155345 8.99999981881698 1.7958036478991513e-06
    vertex 12.200000128155363 4.999999818816975 1.7408197639119749e-06
  endloop
endfacet
facet normal 1.490176189776303e-08 -4.213563039347982e-08 -0.9999999999999991
  outer loop
    vertex 12.200000128155407 78.99999981881692 -1.3772168866744203e-06
    vertex 12.200000128155363 4.999999818816975 1.7408197639119749e-06
    vertex 7.200000128155354 -1.8118301570169137e-07 1.8769890840188151e-06
  endloop
endfacet
facet normal 1.490176189776303e-08 -4.213563039347982e-08 -0.9999999999999991
  outer loop
    vertex 12.200000128155407 78.99999981881692 -1.3772168866744203e-06
    vertex 7.200000128155354 -1.8118301570169137e-07 1.8769890840188151e-06
    vertex 7.200000128155399 83.9999998188169 -1.6624038481411442e-06
  endloop
endfacet
facet normal 1.490176189776303e-08 -4.213563039347982e-08 -0.9999999999999991
  outer loop
    vertex 7.200000128155399 83.9999998188169 -1.6624038481411442e-06
    vertex 7.200000128155354 -1.8118301570169137e-07 1.8769890840188151e-06
    vertex 1.2815533949606104e-07 -1.811830269815573e-07 1.7696963984827063e-06
  endloop
endfacet
facet normal 1.490176189776303e-08 -4.213563039347982e-08 -0.9999999999999991
  outer loop
    vertex 7.200000128155399 83.9999998188169 -1.6624038481411442e-06
    vertex 1.2815533949606104e-07 -1.811830269815573e-07 1.7696963984827063e-06
    vertex 1.2815541845512256e-07 83.9999998188169 -1.7696965336772528e-06
  endloop
endfacet
facet normal 0.7071067811865479 0.707106781186547 -1.9257253075049438e-08
  outer loop
    vertex 7.200000000000258 84.00000018118332 8.599998337596128
    vertex 12.200000128155407 78.99999981881692 -1.3772168866744203e-06
    vertex 7.200000128155399 83.9999998188169 -1.6624038481411442e-06
  endloop
endfacet
facet normal 0.7071067811865479 0.707106781186547 -1.9257253075049438e-08
  outer loop
    vertex 12.200000128155407 78.99999981881692 -1.3772168866744203e-06
    vertex 7.200000000000258 84.00000018118332 8.599998337596128
    vertex 12.200000000000253 79.00000018118334 8.59999862278309
  endloop
endfacet
facet normal -1.0 2.3435257327210854e-16 -1.4901762978268146e-08
  outer loop
    vertex 1.2815541845512256e-07 83.9999998188169 -1.7696965336772528e-06
    vertex 8.345012885158098e-08 73.99999994522379 2.999998651659762
    vertex 2.5943691639440655e-13 84.00000018118332 8.599998230303465
  endloop
endfacet
facet normal -1.0 2.3435257327210854e-16 -1.4901762978268146e-08
  outer loop
    vertex 8.345012885158098e-08 73.99999994522379 2.999998651659762
    vertex 1.2815541845512256e-07 83.9999998188169 -1.7696965336772528e-06
    vertex 1.2815533949606104e-07 -1.811830269815573e-07 1.7696963984827063e-06
  endloop
endfacet
facet normal -1.0 2.3435257327210854e-16 -1.4901762978268146e-08
  outer loop
    vertex 2.5943691639440655e-13 84.00000018118332 8.599998230303465
    vertex 8.345012885158098e-08 73.99999994522379 2.999998651659762
    vertex 5.3646613729085856e-08 75.00000002949507 4.999998609524126
  endloop
endfacet
facet normal -1.0 2.3435257327210854e-16 -1.4901762978268146e-08
  outer loop
    vertex 8.345012885158098e-08 73.99999994522379 2.999998651659762
    vertex 1.2815533949606104e-07 -1.811830269815573e-07 1.7696963984827063e-06
    vertex 8.345008373211726e-08 9.999999945223847 3.0000013483401085
  endloop
endfacet
facet normal -1.0 2.3435257327210854e-16 -1.4901762978268146e-08
  outer loop
    vertex 8.345008373211726e-08 9.999999945223847 3.0000013483401085
    vertex 1.2815533949606104e-07 -1.811830269815573e-07 1.7696963984827063e-06
    vertex 5.3646557329756205e-08 9.00000002949513 5.0000013904757115
  endloop
endfacet
facet normal -1.0 2.3435257327210854e-16 -1.4901762978268146e-08
  outer loop
    vertex 5.3646557329756205e-08 9.00000002949513 5.0000013904757115
    vertex 1.2815533949606104e-07 -1.811830269815573e-07 1.7696963984827063e-06
    vertex 1.9175772081325702e-13 9.000000181183406 8.600001390475724
  endloop
endfacet
facet normal -1.0 2.3435257327210854e-16 -1.4901762978268146e-08
  outer loop
    vertex 1.9175772081325702e-13 9.000000181183406 8.600001390475724
    vertex 1.2815533949606104e-07 -1.811830269815573e-07 1.7696963984827063e-06
    vertex 1.9175772081325702e-13 1.8118339921713299e-07 8.60000176969642
  endloop
endfacet
facet normal -1.0 2.3435257327210854e-16 -1.4901762978268146e-08
  outer loop
    vertex 5.3646557329756205e-08 9.00000002949513 5.0000013904757115
    vertex 5.3646557329756205e-08 10.000000029495116 5.000001348340104
    vertex 8.345008373211726e-08 9.999999945223847 3.0000013483401085
  endloop
endfacet
facet normal -1.0 2.3435257327210854e-16 -1.4901762978268146e-08
  outer loop
    vertex 5.364660244921992e-08 74.00000002949507 4.999998651659757
    vertex 5.3646613729085856e-08 75.00000002949507 4.999998609524126
    vertex 8.345012885158098e-08 73.99999994522379 2.999998651659762
  endloop
endfacet
facet normal -1.0 2.3435257327210854e-16 -1.4901762978268146e-08
  outer loop
    vertex 2.7071678232459813e-13 75.00000018118334 8.59999860952414
    vertex 2.5943691639440655e-13 84.00000018118332 8.599998230303465
    vertex 5.3646613729085856e-08 75.00000002949507 4.999998609524126
  endloop
endfacet
facet normal 1.0 1.7064639101740927e-24 1.490176188001515e-08
  outer loop
    vertex 2.0000000253332555 75.00000010955276 6.899998639327646
    vertex 2.0000000536466045 77.20000002949506 4.999998546629263
    vertex 2.0000000253332555 77.20000010955276 6.8999985466292575
  endloop
endfacet
facet normal 1.0 1.7064639101740927e-24 1.490176188001515e-08
  outer loop
    vertex 2.0000000536466045 77.20000002949506 4.999998546629263
    vertex 2.0000000253332555 75.00000010955276 6.899998639327646
    vertex 2.0000000536466045 75.00000002949507 4.99999863932765
  endloop
endfacet
facet normal 1.0 1.7064639101740927e-24 1.490176188001515e-08
  outer loop
    vertex 2.000000025333199 9.000000109552827 6.900001420279231
    vertex 2.000000053646548 6.800000029495145 5.0000015129776445
    vertex 2.000000053646559 9.00000002949514 5.000001420279258
  endloop
endfacet
facet normal 1.0 1.7064639101740927e-24 1.490176188001515e-08
  outer loop
    vertex 2.000000053646548 6.800000029495145 5.0000015129776445
    vertex 2.000000025333199 9.000000109552827 6.900001420279231
    vertex 2.000000025333199 6.8000001095528315 6.900001512977617
  endloop
endfacet
endsolid PCB Cover
